<?xml version="1.0" standalone="no"?>
<!DOCTYPE svg PUBLIC "-//W3C//DTD SVG 20010904//EN"
 "http://www.w3.org/TR/2001/REC-SVG-20010904/DTD/svg10.dtd">
<svg version="1.0" xmlns="http://www.w3.org/2000/svg"
 width="168.000000pt" height="168.000000pt" viewBox="0 0 168.000000 168.000000"
 preserveAspectRatio="xMidYMid meet">
<metadata>
Created by potrace 1.11, written by Peter Selinger 2001-2013
</metadata>
<g transform="translate(0.000000,168.000000) scale(0.100000,-0.100000)"
fill="#000000" stroke="none">
<path d="M950 1509 c-25 -5 -61 -16 -82 -25 -34 -15 -40 -15 -88 1 -78 26
-170 17 -247 -24 -108 -58 -192 -166 -212 -275 -7 -36 -19 -59 -49 -89 -23
-23 -54 -69 -69 -102 -24 -52 -28 -72 -28 -155 0 -82 4 -103 26 -151 30 -63
89 -133 130 -154 20 -11 29 -25 34 -54 17 -100 129 -218 247 -259 83 -29 204
-30 267 -2 23 11 47 17 52 14 22 -13 114 -20 165 -12 74 11 146 49 205 108 49
50 101 140 114 200 4 19 22 52 41 72 59 66 104 175 104 254 0 80 -68 234 -126
283 -21 17 -34 39 -38 65 -18 95 -104 210 -195 260 -28 15 -81 33 -118 41 -76
16 -71 16 -133 4z m176 -36 c121 -40 212 -139 249 -273 6 -22 5 -23 -7 -10 -8
8 -20 34 -27 57 -34 122 -183 223 -327 223 -147 0 -277 -108 -309 -258 -4 -21
-11 -30 -16 -25 -9 9 16 97 41 143 34 63 115 128 190 151 45 13 155 9 206 -8z
m-370 -4 c54 -14 61 -35 7 -23 -125 29 -251 -15 -323 -109 -60 -81 -80 -131
-80 -212 0 -83 27 -149 90 -223 54 -65 51 -77 -6 -22 -69 67 -104 147 -104
237 0 94 27 167 87 233 94 104 214 148 329 119z m362 -34 c67 -20 145 -83 182
-148 16 -28 30 -58 30 -64 0 -19 -20 -15 -26 5 -37 123 -149 202 -287 202
-126 -1 -230 -82 -268 -208 -13 -46 -35 -59 -24 -14 26 106 106 199 194 226
61 19 136 19 199 1z m-361 -14 c10 -5 -12 -8 -63 -7 -67 1 -87 -3 -135 -26
-67 -33 -88 -55 -128 -132 -26 -48 -31 -70 -31 -125 0 -76 34 -161 90 -224 18
-20 27 -37 21 -37 -18 0 -96 107 -114 158 -35 97 -14 202 59 298 66 85 227
137 301 95z m360 -47 c51 -17 106 -62 129 -106 33 -63 9 -64 -30 -2 -51 81
-134 116 -239 100 -59 -9 -127 -68 -163 -141 -14 -30 -30 -55 -35 -55 -12 0
-12 2 12 57 31 73 66 113 123 139 61 28 134 31 203 8z m-397 -4 c11 -7 -2 -10
-43 -10 -129 0 -217 -90 -217 -222 0 -70 20 -123 65 -176 15 -18 24 -36 20
-40 -11 -11 -73 69 -90 117 -46 136 18 278 145 321 61 22 98 24 120 10z m394
-34 c34 -14 96 -81 96 -103 0 -8 -14 -13 -38 -13 -22 0 -60 -6 -86 -14 l-47
-14 -35 75 c-19 42 -34 77 -34 79 0 10 115 2 144 -10z m-433 -71 c-20 -57 -30
-74 -41 -69 -8 3 -45 8 -82 11 -38 3 -68 9 -68 13 0 4 10 22 23 41 31 47 91
79 148 79 l46 0 -26 -75z m326 -60 c25 -60 67 -141 92 -180 53 -81 58 -91 41
-80 -37 23 -219 373 -202 389 8 9 16 -5 69 -129z m-66 58 c50 -116 103 -222
140 -276 22 -32 38 -61 36 -63 -6 -7 -70 82 -96 133 -63 125 -118 253 -110
253 6 0 19 -21 30 -47z m-40 -40 c46 -110 122 -253 156 -292 19 -23 32 -45 29
-49 -15 -15 -106 121 -157 234 -16 38 -39 88 -50 112 -10 23 -14 42 -8 42 5 0
19 -21 30 -47z m-28 -20 l15 -38 -35 -3 c-19 -2 -37 -1 -40 1 -7 7 25 77 35
77 6 0 17 -17 25 -37z m463 -27 c69 -32 120 -86 158 -165 28 -60 31 -75 31
-161 0 -104 -16 -155 -70 -218 -36 -42 -45 -34 -11 10 129 170 75 409 -116
510 -34 17 -60 22 -123 23 -44 0 -98 -4 -120 -8 -27 -6 -37 -5 -30 1 18 18 78
30 155 31 59 1 86 -4 126 -23z m-661 -11 c66 -14 144 -25 173 -25 31 0 52 -4
52 -11 0 -14 -126 -4 -220 18 -36 8 -95 17 -132 20 -38 3 -68 9 -68 14 0 15
70 10 195 -16z m650 -36 c61 -30 129 -106 149 -166 29 -85 18 -209 -26 -281
-34 -56 -38 -25 -5 40 28 53 32 71 32 137 -1 92 -31 159 -96 215 -63 53 -124
70 -232 63 -95 -6 -105 -3 -41 12 64 16 165 7 219 -20z m-688 5 c30 -9 105
-22 167 -29 101 -12 105 -13 46 -14 -36 0 -108 8 -160 19 -52 11 -121 20 -152
20 -32 0 -58 5 -58 10 0 15 96 12 157 -6z m-317 -39 c0 -3 -15 -25 -34 -49
-101 -132 -95 -318 14 -426 68 -69 139 -93 255 -87 50 2 98 7 108 12 9 4 17 3
17 -3 0 -31 -205 -43 -283 -16 -67 23 -131 84 -169 161 -28 57 -32 75 -32 147
-1 97 22 169 72 227 29 34 52 49 52 34z m998 -25 c69 -39 121 -131 122 -217 0
-45 -26 -123 -41 -123 -13 0 -11 12 7 56 35 84 -7 208 -88 262 -38 25 -50 27
-135 27 -87 0 -110 6 -80 19 6 3 48 4 92 3 62 -3 90 -9 123 -27z m-653 5 c39
-9 115 -18 169 -20 55 -3 101 -7 103 -9 3 -2 -14 -7 -36 -11 -49 -8 -129 1
-244 27 -60 13 -103 18 -133 13 -28 -4 -44 -2 -44 4 0 16 104 13 185 -4z m-50
-25 c3 -6 -6 -33 -21 -61 l-28 -50 -18 23 c-39 50 -57 87 -45 92 23 9 106 6
112 -4z m595 5 c0 -3 -10 -24 -21 -47 l-21 -42 -29 35 c-41 49 -38 59 21 59
28 0 50 -2 50 -5z m40 -8 c0 -20 -51 -96 -104 -156 -57 -64 -86 -111 -110
-173 -18 -48 -43 -68 -31 -25 17 58 71 149 128 214 35 40 72 91 82 113 18 39
35 53 35 27z m-962 -57 c-31 -50 -33 -59 -33 -139 0 -74 4 -93 28 -138 34 -66
59 -89 126 -121 49 -22 62 -24 158 -20 78 4 100 2 86 -6 -10 -6 -63 -11 -118
-11 -89 0 -105 3 -151 27 -147 77 -195 277 -103 423 16 26 32 45 35 42 3 -2
-10 -28 -28 -57z m346 -2 c-29 -57 -80 -129 -143 -202 -23 -26 -49 -62 -58
-79 -9 -18 -18 -27 -21 -19 -5 16 10 39 99 149 39 48 85 114 102 145 40 72 57
77 21 6z m642 -11 c-14 -23 -52 -73 -86 -112 -33 -38 -76 -101 -95 -139 -39
-77 -48 -69 -11 9 12 28 53 86 90 130 37 44 80 101 94 127 15 26 29 43 30 37
2 -5 -8 -28 -22 -52z m-607 1 c-30 -59 -88 -142 -143 -207 -26 -29 -54 -68
-63 -85 -9 -17 -18 -26 -20 -19 -5 15 19 53 78 123 50 60 116 156 143 208 10
19 20 32 22 29 3 -3 -5 -25 -17 -49z m77 25 c-19 -51 -95 -168 -148 -229 -33
-38 -66 -81 -74 -96 -8 -16 -19 -28 -25 -28 -15 0 15 50 67 110 54 63 134 182
153 228 14 33 38 46 27 15z m222 -8 c6 -12 31 -47 56 -78 l46 -57 -29 -44
c-15 -25 -35 -64 -44 -88 l-17 -43 -102 2 -102 1 -17 34 c-9 18 -33 51 -52 73
l-34 39 28 46 c16 26 37 66 48 91 l20 44 95 1 c88 1 95 -1 104 -21z m357 -16
c-9 -16 -47 -64 -86 -106 -43 -47 -84 -106 -107 -151 -39 -79 -57 -84 -23 -7
22 50 60 103 127 176 23 25 52 65 63 88 12 23 26 39 31 36 6 -4 4 -18 -5 -36z
m-1001 -36 c-21 -45 -24 -125 -4 -173 40 -102 106 -139 245 -141 107 -1 89
-17 -21 -18 -91 -1 -156 21 -193 66 -35 42 -61 120 -61 182 0 45 35 140 46
128 4 -4 -2 -23 -12 -44z m1070 -90 c1 -89 -11 -94 -67 -29 l-46 54 36 56 37
56 20 -37 c13 -26 20 -58 20 -100z m-974 24 l53 -57 -25 -28 c-14 -15 -35 -42
-46 -61 l-20 -33 -17 26 c-24 36 -44 95 -45 129 0 36 28 103 38 91 5 -5 33
-35 62 -67z m889 -63 c66 -75 86 -126 85 -219 0 -67 -5 -90 -29 -140 -72 -149
-238 -239 -391 -211 -57 11 -33 18 68 19 83 2 99 5 146 31 114 64 186 180 186
301 0 84 -24 144 -83 208 -23 24 -41 47 -41 51 0 17 22 2 59 -40z m22 -108
c29 -67 30 -162 1 -228 -28 -63 -95 -134 -157 -165 -59 -30 -201 -47 -193 -22
3 9 21 12 59 10 80 -3 156 28 212 88 69 74 82 104 82 196 0 67 -5 88 -27 130
-14 28 -38 61 -52 74 -14 14 -26 29 -26 35 0 23 80 -71 101 -118z m-621 51
c20 -26 51 -88 70 -139 19 -51 50 -112 68 -136 18 -24 30 -48 26 -53 -11 -18
-66 70 -101 163 -33 88 -74 160 -107 187 -9 8 -16 18 -16 23 0 20 26 0 60 -45z
m524 -2 c110 -143 76 -313 -76 -389 -52 -26 -146 -37 -133 -16 3 6 24 10 46
10 100 0 209 115 209 220 0 40 -29 109 -66 157 -13 17 -24 36 -24 42 0 21 18
11 44 -24z m-559 -48 c19 -28 46 -85 61 -126 15 -42 44 -102 65 -133 21 -32
32 -58 25 -58 -17 0 -71 95 -95 170 -20 60 -56 129 -98 190 -10 13 -12 21 -5
16 7 -4 28 -30 47 -59z m534 5 c17 -27 31 -52 31 -55 0 -4 -25 -7 -55 -7 -30
0 -55 4 -55 10 0 9 42 100 46 100 1 0 16 -22 33 -48z m-564 -18 c20 -30 50
-92 67 -137 16 -45 42 -105 58 -134 17 -30 25 -55 20 -58 -15 -9 -47 52 -81
155 -18 52 -49 121 -70 154 -35 53 -46 76 -35 76 2 0 21 -25 41 -56z m-25 -35
c0 -5 -21 -9 -46 -9 -46 0 -46 0 -32 23 8 12 18 28 23 36 7 11 13 9 32 -13 12
-15 23 -31 23 -37z m418 -14 c41 -10 90 -15 138 -13 46 2 73 -1 71 -7 -7 -19
-122 -16 -218 5 -52 12 -123 21 -159 20 -83 -2 -82 -2 -74 11 9 16 161 6 242
-16z m1 -56 c58 -14 108 -20 154 -17 64 3 85 -3 51 -16 -30 -12 -102 -6 -180
15 -43 12 -119 24 -169 29 l-90 7 74 1 c45 1 106 -6 160 -19z m2 -34 c51 -13
120 -25 152 -25 41 0 56 -3 51 -11 -10 -16 -124 -4 -202 21 -42 13 -91 20
-143 20 -46 0 -79 4 -79 10 0 19 125 10 221 -15z m-111 -25 c0 -16 -29 -70
-38 -70 -8 0 -52 62 -52 73 0 4 20 7 45 7 25 0 45 -5 45 -10z m25 -50 c-55
-109 -126 -159 -225 -160 -75 0 -124 15 -165 51 -41 36 -78 94 -72 112 3 7 9
1 15 -14 16 -41 68 -95 109 -114 22 -11 61 -18 97 -18 101 -1 166 45 222 155
14 27 29 46 34 43 6 -4 -1 -27 -15 -55z m58 -2 c-53 -136 -160 -218 -283 -218
-115 0 -231 74 -280 177 -22 48 -24 53 -12 53 5 0 14 -17 20 -39 15 -47 76
-112 134 -142 60 -31 172 -38 235 -14 62 24 124 88 159 164 32 69 53 84 27 19z
m-603 6 c0 -31 50 -112 94 -152 83 -76 199 -108 305 -82 93 22 193 122 223
223 6 20 15 37 20 37 10 0 11 4 -7 -54 -46 -151 -150 -235 -291 -236 -150 0
-292 84 -345 205 -29 68 -32 86 -15 79 9 -3 16 -13 16 -20z m299 -34 c12 -32
26 -62 31 -65 21 -13 10 -35 -17 -35 -56 0 -108 23 -150 65 -56 56 -56 75 0
76 23 1 53 5 67 9 43 14 47 11 69 -50z m520 33 c3 -2 -11 -20 -30 -39 -39 -41
-85 -64 -128 -64 l-30 0 20 59 20 60 72 -6 c40 -3 74 -7 76 -10z"/>
</g>
</svg>
